<svg id="icon_emerg" xmlns="http://www.w3.org/2000/svg" width="22" height="21.207" viewBox="0 0 22 21.207">
  <rect id="사각형_2953" data-name="사각형 2953" width="14" height="3" transform="translate(4 17.641)" fill="#fff"/>
  <path id="패스_2199" data-name="패스 2199" d="M16.208,17.17H5.06V8.745A3.586,3.586,0,0,1,8.646,5.159h3.977a3.586,3.586,0,0,1,3.586,3.586Z" transform="translate(0.506 0.516)" fill="#fff"/>
  <path id="패스_2200" data-name="패스 2200" d="M18.227,16.681H16.866V8.29A3.859,3.859,0,0,0,13.01,4.434H8.474A3.86,3.86,0,0,0,4.619,8.29v8.392H3.258a.68.68,0,0,0-.68.68v2.721a.68.68,0,0,0,.68.681H18.227a.681.681,0,0,0,.681-.681V17.361a.68.68,0,0,0-.681-.68M5.979,8.29A2.5,2.5,0,0,1,8.474,5.795H13.01A2.5,2.5,0,0,1,15.505,8.29v8.392H5.979ZM17.547,19.4H3.939V18.042H17.547Z" transform="translate(0.258 0.443)" fill="#eb1d36"/>
  <path id="패스_2201" data-name="패스 2201" d="M10.247,8.763a2.722,2.722,0,1,0,2.721,2.721,2.725,2.725,0,0,0-2.721-2.721m0,4.083a1.361,1.361,0,1,1,1.362-1.362,1.363,1.363,0,0,1-1.362,1.362" transform="translate(0.753 0.877)" fill="#eb1d36"/>
  <path id="패스_2202" data-name="패스 2202" d="M10.062,2.721a.68.68,0,0,0,.68-.68V.68a.68.68,0,0,0-1.36,0V2.042a.68.68,0,0,0,.68.68" transform="translate(0.938)" fill="#eb1d36"/>
  <path id="패스_2203" data-name="패스 2203" d="M19.567,9.382H18.207a.68.68,0,0,0,0,1.361h1.361a.68.68,0,0,0,0-1.361" transform="translate(1.753 0.938)" fill="#eb1d36"/>
  <path id="패스_2204" data-name="패스 2204" d="M16.033,4.859a.675.675,0,0,0,.481-.2l.962-.962a.68.68,0,0,0-.962-.961l-.961.961a.68.68,0,0,0,.481,1.162" transform="translate(1.535 0.254)" fill="#eb1d36"/>
  <path id="패스_2205" data-name="패스 2205" d="M2.721,10.062a.68.68,0,0,0-.68-.68H.68a.68.68,0,0,0,0,1.36H2.042a.68.68,0,0,0,.68-.68" transform="translate(0 0.938)" fill="#eb1d36"/>
  <path id="패스_2206" data-name="패스 2206" d="M3.7,4.66A.681.681,0,1,0,4.66,3.7L3.7,2.736a.68.68,0,0,0-.962.961Z" transform="translate(0.254 0.254)" fill="#eb1d36"/>
</svg>
